<svg xmlns="http://www.w3.org/2000/svg" viewBox="0 0 512 512">
  <defs>
    <linearGradient id="g" x1="0%" y1="0%" x2="100%" y2="100%">
      <stop offset="0%" stop-color="#64d5ff"/>
      <stop offset="100%" stop-color="#614dff"/>
    </linearGradient>
    <filter id="glow">
      <feGaussianBlur stdDeviation="12" result="coloredBlur"/>
      <feMerge>
        <feMergeNode in="coloredBlur"/>
        <feMergeNode in="SourceGraphic"/>
      </feMerge>
    </filter>
  </defs>
  <rect width="512" height="512" rx="120" fill="#091121"/>
  <path
    d="M352 168c0-48-40-88-88-88h-40c-58 0-104 47-104 104 0 40 28 74 66 82l88 20c18 4 30 20 30 38 0 22-18 40-40 40h-48c-20 0-36-16-36-36h-64c0 55 45 100 100 100h48c58 0 104-46 104-104 0-47-33-88-80-98l-88-20c-17-4-30-20-30-38 0-22 18-40 40-40h40c20 0 36 16 36 36z"
    fill="url(#g)"
    filter="url(#glow)"
  />
</svg>
